<svg width="24" height="25" viewBox="0 0 24 25" fill="none" xmlns="http://www.w3.org/2000/svg">
<path d="M3 3.5V21.5H21" stroke="black" stroke-width="2" stroke-linecap="round" stroke-linejoin="round"/>
<path d="M10 10.5H8C7.44772 10.5 7 10.9477 7 11.5V16.5C7 17.0523 7.44772 17.5 8 17.5H10C10.5523 17.5 11 17.0523 11 16.5V11.5C11 10.9477 10.5523 10.5 10 10.5Z" stroke="black" stroke-width="2" stroke-linecap="round" stroke-linejoin="round"/>
<path d="M18 5.5H16C15.4477 5.5 15 5.94772 15 6.5V16.5C15 17.0523 15.4477 17.5 16 17.5H18C18.5523 17.5 19 17.0523 19 16.5V6.5C19 5.94772 18.5523 5.5 18 5.5Z" stroke="black" stroke-width="2" stroke-linecap="round" stroke-linejoin="round"/>
</svg>
