<svg width="240" height="240" viewBox="0 0 240 240" fill="none" xmlns="http://www.w3.org/2000/svg">
<path d="M190 30H50C38.9543 30 30 38.9543 30 50V190C30 201.046 38.9543 210 50 210H190C201.046 210 210 201.046 210 190V50C210 38.9543 201.046 30 190 30Z" stroke="#1F2937" stroke-width="20" stroke-linecap="round" stroke-linejoin="round"/>
<path d="M90 170V70H130C137.956 70 145.587 73.1607 151.213 78.7868C156.839 84.4129 160 92.0435 160 100C160 107.956 156.839 115.587 151.213 121.213C145.587 126.839 137.956 130 130 130H90" stroke="#1F2937" stroke-width="20" stroke-linecap="round" stroke-linejoin="round"/>
</svg>
